<svg t="1704342603868" class="icon" viewBox="0 0 1024 1024" version="1.1" xmlns="http://www.w3.org/2000/svg" p-id="1462" width="200" height="200"><path d="M512.416 409.472a239.914667 239.914667 0 1 1 0 479.786667 239.914667 239.914667 0 0 1 0-479.786667zM6.645333 371.925333l128.853334 152.490667a27.264 27.264 0 0 0 38.954666 2.901333c208.426667-186.837333 468.053333-186.837333 675.84 0a27.392 27.392 0 0 0 39.082667-2.901333l128.256-152.490667a27.562667 27.562667 0 0 0-3.2-38.656c-302.933333-264.704-702.378667-264.704-1005.013333 0a27.733333 27.733333 0 0 0-2.773334 38.656z" p-id="1463"></path></svg>
